<svg width="18" height="18" viewBox="0 0 18 18" fill="none" xmlns="http://www.w3.org/2000/svg">
<path d="M15 0C16.6569 1.93277e-07 18 1.34315 18 3V15C18 16.6569 16.6569 18 15 18H3C1.34315 18 4.832e-08 16.6569 0 15V3C1.9328e-07 1.34315 1.34315 4.83192e-08 3 0H15ZM9 3C5.69174 3 3 5.69174 3 9C3 12.3083 5.69174 15 9 15C12.3083 15 15 12.3083 15 9C15 5.69174 12.3082 3 9 3ZM9.9082 9.83887C10.6281 11.7077 10.9247 13.2754 11.002 13.7256C10.3877 13.9873 9.71003 14.1326 8.99902 14.1318C7.81485 14.1318 6.72271 13.7287 5.85352 13.0508C5.94576 12.8633 6.98386 10.8579 9.87402 9.85059L9.9082 9.83887ZM10.8682 9.60254C12.4739 9.3453 13.885 9.76676 14.0605 9.82227C13.831 11.2472 13.0137 12.4789 11.8633 13.2559C11.8106 12.943 11.5368 11.4437 10.8682 9.60254ZM9.14355 8.12207C9.29056 8.40788 9.42927 8.69838 9.55957 8.99219L9.35742 9.05273C6.71517 9.90698 5.3084 12.2366 5.19141 12.4346C4.37399 11.5264 3.87486 10.3247 3.87402 9.00781L3.87695 8.85059C4.10258 8.85584 6.58613 8.88758 9.14355 8.12207ZM12.9668 5.7666C13.6808 6.63885 14.1118 7.75022 14.123 8.95996C13.953 8.92384 12.2606 8.58046 10.5547 8.79492L10.4443 8.5293C10.3374 8.27912 10.2239 8.03156 10.1045 7.78711C11.9997 7.01385 12.8588 5.91284 12.9668 5.7666ZM6.82129 4.36914C6.95628 4.55436 7.87178 5.82348 8.7207 7.33301C6.32426 7.96958 4.21363 7.96101 3.9834 7.95801C4.3157 6.36737 5.38737 5.04561 6.82129 4.36914ZM9 3.88281C10.3018 3.88281 11.492 4.37077 12.3965 5.17383C12.305 5.30508 11.5343 6.34214 9.71191 7.02539C8.87192 5.48263 7.94058 4.21514 7.79883 4.02539C8.19203 3.93059 8.59553 3.88267 9 3.88281Z" fill="#1E4944"/>
</svg>
