<svg width="18" height="18" viewBox="0 0 18 18" fill="none" xmlns="http://www.w3.org/2000/svg">
<path d="M15.336 15.3373H12.6696V11.1613C12.6696 10.1653 12.6516 8.88131 11.2824 8.88131C9.894 8.88131 9.6816 9.96731 9.6816 11.0881V15.3361H7.014V6.74891H9.5748V7.92251H9.6108C9.86702 7.48445 10.2373 7.12408 10.6821 6.8798C11.1269 6.63551 11.6297 6.51646 12.1368 6.53531C14.8392 6.53531 15.3384 8.31371 15.3384 10.6273L15.3372 15.3385L15.336 15.3373ZM4.0056 5.57411C3.80231 5.57411 3.60102 5.53407 3.41321 5.45627C3.22539 5.37848 3.05474 5.26446 2.911 5.12071C2.76725 4.97696 2.65323 4.80631 2.57543 4.6185C2.49764 4.43069 2.4576 4.2294 2.4576 4.02611C2.4576 3.82282 2.49764 3.62153 2.57543 3.43372C2.65323 3.2459 2.76725 3.07525 2.911 2.93151C3.05474 2.78776 3.22539 2.67374 3.41321 2.59594C3.60102 2.51815 3.80231 2.47811 4.0056 2.47811C4.41616 2.47811 4.8099 2.6412 5.1002 2.93151C5.39051 3.22181 5.5536 3.61555 5.5536 4.02611C5.5536 4.43666 5.39051 4.8304 5.1002 5.12071C4.8099 5.41102 4.41616 5.57411 4.0056 5.57411ZM5.34 15.3361H2.6688V6.74771H5.3388V15.3373L5.34 15.3361ZM16.668 0.000109354H1.3284C0.980105 -0.00373211 0.644535 0.130873 0.395441 0.374341C0.146348 0.617809 0.00411408 0.950217 0 1.29851L0 16.7017C0.00411408 17.05 0.146348 17.3824 0.395441 17.6259C0.644535 17.8693 0.980105 18.004 1.3284 18.0001H16.6668C17.0157 18.0046 17.3522 17.8703 17.6022 17.6269C17.8522 17.3834 17.9953 17.0506 18 16.7017V1.29611C17.9946 0.947597 17.8513 0.615442 17.6013 0.372489C17.3514 0.129536 17.0153 -0.00438032 16.6668 0.000109354" fill="#1E4944"/>
</svg>
