<svg width="161" height="30" viewBox="0 0 161 30" fill="none" xmlns="http://www.w3.org/2000/svg">
<path d="M15 15C15 6.71573 8.28427 0 6.63524e-08 0V30H15V15Z" fill="#E5ECEB"/>
<path d="M17.7246 15C17.7246 23.2843 24.4403 30 32.7246 30V-1.04308e-06H17.7246V15Z" fill="#E5ECEB"/>
<path d="M42.4896 21.5229H40.9082V8.99757H42.463L49.4195 18.7453H49.5617V8.99757H51.1431V21.5229H49.5883L42.6318 11.8099H42.4896V21.5229Z" fill="#E5ECEB"/>
<path d="M54.2526 21.5229V12.1658H55.7808V21.5229H54.2526ZM55.7719 9.96105C55.5646 10.1636 55.3129 10.2649 55.0167 10.2649C54.7206 10.2649 54.4688 10.1636 54.2615 9.96105C54.0542 9.75273 53.9506 9.5068 53.9506 9.22325C53.9506 8.9397 54.0542 8.69666 54.2615 8.49412C54.4688 8.2858 54.7206 8.18164 55.0167 8.18164C55.3129 8.18164 55.5646 8.2858 55.7719 8.49412C55.9792 8.69666 56.0828 8.9397 56.0828 9.22325C56.0828 9.5068 55.9792 9.75273 55.7719 9.96105Z" fill="#E5ECEB"/>
<path d="M58.6949 21.5229V12.1658H60.1519V13.6414H60.2941C60.5132 13.1206 60.8538 12.7184 61.3158 12.4349C61.7778 12.1455 62.3286 12.0009 62.9683 12.0009C63.5961 12.0009 64.1351 12.1484 64.5853 12.4435C65.0413 12.7387 65.3849 13.138 65.6159 13.6414H65.758C66.0186 13.138 66.4095 12.7387 66.9308 12.4435C67.452 12.1484 68.0384 12.0009 68.6899 12.0009C69.6672 12.0009 70.4194 12.2671 70.9465 12.7994C71.4737 13.326 71.7372 14.0783 71.7372 15.0562V21.5229H70.2091V15.4034C70.2091 14.032 69.5369 13.3463 68.1924 13.3463C67.5408 13.3463 67.0078 13.5546 66.5932 13.9712C66.1785 14.3879 65.9712 14.9 65.9712 15.5076V21.5229H64.4431V15.1691C64.4431 14.6136 64.2595 14.1709 63.8923 13.841C63.531 13.5112 63.0483 13.3463 62.4441 13.3463C61.8222 13.3463 61.2951 13.5777 60.8627 14.0407C60.4362 14.5036 60.223 15.0649 60.223 15.7246V21.5229H58.6949Z" fill="#E5ECEB"/>
<path d="M81.6878 20.3945C80.9001 21.2567 79.8251 21.6878 78.4628 21.6878C77.1005 21.6878 76.0225 21.2567 75.2288 20.3945C74.4411 19.5265 74.0472 18.3431 74.0472 16.8443C74.0472 15.3398 74.4411 14.1564 75.2288 13.2942C76.0166 12.432 77.0946 12.0009 78.4628 12.0009C79.831 12.0009 80.909 12.432 81.6967 13.2942C82.4845 14.1564 82.8784 15.3398 82.8784 16.8443C82.8784 18.3431 82.4815 19.5265 81.6878 20.3945ZM76.366 19.431C76.8577 20.0386 77.5566 20.3424 78.4628 20.3424C79.369 20.3424 80.0679 20.0386 80.5595 19.431C81.0511 18.8176 81.2969 17.9554 81.2969 16.8443C81.2969 15.7333 81.0511 14.874 80.5595 14.2664C80.0679 13.653 79.369 13.3463 78.4628 13.3463C77.5566 13.3463 76.8577 13.653 76.366 14.2664C75.8744 14.874 75.6286 15.7333 75.6286 16.8443C75.6286 17.9554 75.8744 18.8176 76.366 19.431Z" fill="#E5ECEB"/>
<path d="M85.2772 21.5229V12.1658H86.7342V13.5546H86.8764C87.0185 13.0974 87.3383 12.7242 87.8359 12.4349C88.3334 12.1455 88.899 12.0009 89.5328 12.0009C89.823 12.0009 90.0777 12.0153 90.2969 12.0443V13.5372C90.0896 13.4794 89.7638 13.4504 89.3196 13.4504C88.5911 13.4504 87.9899 13.6645 87.516 14.0928C87.0422 14.521 86.8053 15.0649 86.8053 15.7246V21.5229H85.2772Z" fill="#E5ECEB"/>
<path d="M95.1567 20.3771C95.9444 20.3771 96.5959 20.1543 97.1112 19.7088C97.6325 19.2632 97.8931 18.7048 97.8931 18.0335V17.1742L95.3166 17.3391C94.594 17.3854 94.0639 17.533 93.7263 17.7818C93.3887 18.0306 93.2199 18.3923 93.2199 18.8668C93.2199 19.3355 93.4005 19.7059 93.7618 19.9778C94.1231 20.244 94.5881 20.3771 95.1567 20.3771ZM94.8724 21.6878C93.9306 21.6878 93.1547 21.4361 92.5446 20.9326C91.9405 20.4234 91.6384 19.7464 91.6384 18.9015C91.6384 18.0682 91.9405 17.4143 92.5446 16.9398C93.1488 16.4653 94.0106 16.1962 95.13 16.1326L97.8931 15.9676V15.117C97.8931 14.5383 97.7095 14.0957 97.3422 13.789C96.975 13.4823 96.436 13.3289 95.7253 13.3289C95.1507 13.3289 94.6739 13.4302 94.2949 13.6327C93.9158 13.8352 93.673 14.1217 93.5663 14.492H92.0205C92.1211 13.7456 92.515 13.1437 93.2021 12.6866C93.8951 12.2294 94.7539 12.0009 95.7786 12.0009C96.9395 12.0009 97.8368 12.2757 98.4706 12.8255C99.1043 13.3752 99.4212 14.1391 99.4212 15.117V21.5229H97.9641V20.1428H97.822C97.514 20.6404 97.1053 21.0223 96.5959 21.2885C96.0866 21.5547 95.512 21.6878 94.8724 21.6878Z" fill="#E5ECEB"/>
<path d="M106.964 18.2505H108.581C108.682 18.9044 109.028 19.4252 109.621 19.8129C110.213 20.2006 110.965 20.3945 111.877 20.3945C112.742 20.3945 113.456 20.1919 114.018 19.7869C114.587 19.376 114.871 18.861 114.871 18.2418C114.871 17.7094 114.664 17.2697 114.249 16.9225C113.835 16.5695 113.186 16.283 112.304 16.0631L110.66 15.6465C109.499 15.3629 108.655 14.9521 108.128 14.4139C107.601 13.8758 107.337 13.1611 107.337 12.2699C107.337 11.2052 107.752 10.3459 108.581 9.69197C109.416 9.03229 110.512 8.70244 111.868 8.70244C113.106 8.70244 114.143 9.0265 114.978 9.67461C115.813 10.3227 116.263 11.1531 116.328 12.1658H114.72C114.608 11.5235 114.294 11.0229 113.778 10.6641C113.269 10.2996 112.615 10.1173 111.815 10.1173C110.962 10.1173 110.275 10.3111 109.754 10.6989C109.239 11.0808 108.981 11.5871 108.981 12.2179C108.981 12.7097 109.17 13.109 109.549 13.4157C109.934 13.7224 110.568 13.9857 111.451 14.2056L112.792 14.5528C114.119 14.8769 115.07 15.3109 115.644 15.8548C116.225 16.3988 116.515 17.1308 116.515 18.0509C116.515 19.2024 116.083 20.1196 115.218 20.8024C114.353 21.4795 113.189 21.818 111.726 21.818C110.37 21.818 109.256 21.4939 108.386 20.8458C107.521 20.1977 107.047 19.3326 106.964 18.2505Z" fill="#E5ECEB"/>
<path d="M119.624 9.74405H121.153V12.1658H123.285V13.4157H121.153V18.7105C121.153 19.2603 121.265 19.6596 121.49 19.9084C121.715 20.1572 122.077 20.2816 122.574 20.2816C122.793 20.2816 123.03 20.2701 123.285 20.2469V21.5055C122.947 21.5634 122.648 21.5923 122.388 21.5923C121.398 21.5923 120.691 21.3985 120.264 21.0108C119.838 20.623 119.624 19.9836 119.624 19.0925V13.4157H118.079V12.1658H119.624V9.74405Z" fill="#E5ECEB"/>
<path d="M133.342 12.1658V21.5229H131.885V20.056H131.743C131.5 20.5825 131.127 20.9876 130.623 21.2712C130.12 21.5489 129.504 21.6878 128.775 21.6878C127.709 21.6878 126.898 21.3898 126.341 20.7938C125.784 20.1977 125.506 19.3413 125.506 18.2245V12.1658H127.034V17.8599C127.034 18.7105 127.206 19.3355 127.549 19.7348C127.893 20.1283 128.444 20.325 129.202 20.325C130.037 20.325 130.68 20.0965 131.13 19.6393C131.586 19.1764 131.814 18.5312 131.814 17.7037V12.1658H133.342Z" fill="#E5ECEB"/>
<path d="M139.765 21.6878C138.539 21.6878 137.562 21.248 136.834 20.3684C136.105 19.4889 135.741 18.3142 135.741 16.8443C135.741 15.3803 136.105 14.2085 136.834 13.3289C137.568 12.4435 138.545 12.0009 139.765 12.0009C140.435 12.0009 141.033 12.1484 141.56 12.4435C142.093 12.7329 142.496 13.1322 142.768 13.6414H142.902V8.45072H144.43V21.5229H142.973V20.0299H142.831C142.529 20.5507 142.108 20.9587 141.569 21.2538C141.03 21.5431 140.429 21.6878 139.765 21.6878ZM140.121 13.3463C139.25 13.3463 138.566 13.6588 138.069 14.2837C137.571 14.9029 137.322 15.7564 137.322 16.8443C137.322 17.938 137.568 18.7945 138.06 19.4136C138.557 20.0328 139.244 20.3424 140.121 20.3424C140.992 20.3424 141.679 20.0299 142.182 19.4049C142.686 18.78 142.937 17.9264 142.937 16.8443C142.937 15.7738 142.683 14.9231 142.173 14.2924C141.67 13.6616 140.986 13.3463 140.121 13.3463Z" fill="#E5ECEB"/>
<path d="M147.433 21.5229V12.1658H148.961V21.5229H147.433ZM148.952 9.96105C148.745 10.1636 148.493 10.2649 148.197 10.2649C147.901 10.2649 147.649 10.1636 147.442 9.96105C147.234 9.75273 147.131 9.5068 147.131 9.22325C147.131 8.9397 147.234 8.69666 147.442 8.49412C147.649 8.2858 147.901 8.18164 148.197 8.18164C148.493 8.18164 148.745 8.2858 148.952 8.49412C149.159 8.69666 149.263 8.9397 149.263 9.22325C149.263 9.5068 149.159 9.75273 148.952 9.96105Z" fill="#E5ECEB"/>
<path d="M159.036 20.3945C158.248 21.2567 157.173 21.6878 155.811 21.6878C154.449 21.6878 153.371 21.2567 152.577 20.3945C151.789 19.5265 151.395 18.3431 151.395 16.8443C151.395 15.3398 151.789 14.1564 152.577 13.2942C153.365 12.432 154.443 12.0009 155.811 12.0009C157.179 12.0009 158.257 12.432 159.045 13.2942C159.833 14.1564 160.226 15.3398 160.226 16.8443C160.226 18.3431 159.83 19.5265 159.036 20.3945ZM153.714 19.431C154.206 20.0386 154.905 20.3424 155.811 20.3424C156.717 20.3424 157.416 20.0386 157.908 19.431C158.399 18.8176 158.645 17.9554 158.645 16.8443C158.645 15.7333 158.399 14.874 157.908 14.2664C157.416 13.653 156.717 13.3463 155.811 13.3463C154.905 13.3463 154.206 13.653 153.714 14.2664C153.222 14.874 152.977 15.7333 152.977 16.8443C152.977 17.9554 153.222 18.8176 153.714 19.431Z" fill="#E5ECEB"/>
</svg>
