<svg width="214" height="40" viewBox="0 0 214 40" fill="none" xmlns="http://www.w3.org/2000/svg">
<path d="M20 20C20 8.95431 11.0457 0 0 0V40H20V20Z" fill="#316960"/>
<path d="M23.6328 20C23.6328 31.0457 32.5871 40 43.6328 40V0H23.6328V20Z" fill="#316960"/>
<path d="M56.6545 28.6975H54.5459V11.9971H56.6189L65.8943 24.994H66.0838V11.9971H68.1924V28.6975H66.1194L56.844 15.7469H56.6545V28.6975Z" fill="#316960"/>
<path d="M72.3385 28.6975V16.2214H74.376V28.6975H72.3385ZM74.3641 13.2817C74.0877 13.5518 73.7521 13.6868 73.3572 13.6868C72.9624 13.6868 72.6267 13.5518 72.3503 13.2817C72.0739 13.004 71.9357 12.6761 71.9357 12.298C71.9357 11.9199 72.0739 11.5959 72.3503 11.3258C72.6267 11.0481 72.9624 10.9092 73.3572 10.9092C73.7521 10.9092 74.0877 11.0481 74.3641 11.3258C74.6406 11.5959 74.7788 11.9199 74.7788 12.298C74.7788 12.6761 74.6406 13.004 74.3641 13.2817Z" fill="#316960"/>
<path d="M78.2615 28.6975V16.2214H80.2042V18.1889H80.3937C80.6859 17.4944 81.14 16.9582 81.756 16.5801C82.372 16.1944 83.1064 16.0015 83.9594 16.0015C84.7965 16.0015 85.5151 16.1982 86.1153 16.5917C86.7234 16.9852 87.1814 17.5176 87.4894 18.1889H87.679C88.0265 17.5176 88.5477 16.9852 89.2426 16.5917C89.9376 16.1982 90.7194 16.0015 91.5881 16.0015C92.8912 16.0015 93.8941 16.3564 94.597 17.0662C95.2999 17.7684 95.6513 18.7714 95.6513 20.0753V28.6975H93.6138V20.5383C93.6138 18.7097 92.7174 17.7954 90.9248 17.7954C90.0561 17.7954 89.3453 18.0731 88.7925 18.6286C88.2397 19.1842 87.9633 19.867 87.9633 20.6771V28.6975H85.9258V20.2258C85.9258 19.4851 85.681 18.8948 85.1913 18.455C84.7096 18.0153 84.066 17.7954 83.2604 17.7954C82.4312 17.7954 81.7284 18.104 81.1519 18.7212C80.5833 19.3385 80.299 20.0869 80.299 20.9665V28.6975H78.2615Z" fill="#316960"/>
<path d="M108.919 27.193C107.868 28.3426 106.435 28.9174 104.619 28.9174C102.802 28.9174 101.365 28.3426 100.307 27.193C99.2564 26.0356 98.7312 24.4578 98.7312 22.4594C98.7312 20.4534 99.2564 18.8755 100.307 17.7259C101.357 16.5763 102.794 16.0015 104.619 16.0015C106.443 16.0015 107.88 16.5763 108.931 17.7259C109.981 18.8755 110.506 20.4534 110.506 22.4594C110.506 24.4578 109.977 26.0356 108.919 27.193ZM101.823 25.9083C102.479 26.7185 103.41 27.1235 104.619 27.1235C105.827 27.1235 106.759 26.7185 107.414 25.9083C108.07 25.0905 108.398 23.9408 108.398 22.4594C108.398 20.978 108.07 19.8323 107.414 19.0221C106.759 18.2043 105.827 17.7954 104.619 17.7954C103.41 17.7954 102.479 18.2043 101.823 19.0221C101.168 19.8323 100.84 20.978 100.84 22.4594C100.84 23.9408 101.168 25.0905 101.823 25.9083Z" fill="#316960"/>
<path d="M113.704 28.6975V16.2214H115.647V18.0731H115.837C116.026 17.4636 116.453 16.9659 117.116 16.5801C117.78 16.1944 118.534 16.0015 119.379 16.0015C119.766 16.0015 120.105 16.0208 120.397 16.0593V18.05C120.121 17.9728 119.687 17.9342 119.094 17.9342C118.123 17.9342 117.321 18.2197 116.69 18.7907C116.058 19.3616 115.742 20.0869 115.742 20.9665V28.6975H113.704Z" fill="#316960"/>
<path d="M126.877 27.1698C127.928 27.1698 128.796 26.8728 129.483 26.2787C130.178 25.6846 130.526 24.94 130.526 24.045V22.8992L127.09 23.1191C126.127 23.1808 125.42 23.3776 124.97 23.7094C124.52 24.0411 124.295 24.5234 124.295 25.156C124.295 25.781 124.536 26.2748 125.017 26.6374C125.499 26.9924 126.119 27.1698 126.877 27.1698ZM126.498 28.9174C125.242 28.9174 124.208 28.5818 123.394 27.9105C122.589 27.2315 122.186 26.3288 122.186 25.2023C122.186 24.0913 122.589 23.2194 123.394 22.5867C124.2 21.9541 125.349 21.5953 126.842 21.5104L130.526 21.2905V20.1563C130.526 19.3848 130.281 18.7945 129.791 18.3856C129.302 17.9767 128.583 17.7722 127.635 17.7722C126.869 17.7722 126.234 17.9072 125.728 18.1773C125.223 18.4473 124.899 18.8292 124.757 19.323H122.696C122.83 18.3277 123.355 17.5253 124.271 16.9158C125.195 16.3062 126.34 16.0015 127.706 16.0015C129.254 16.0015 130.451 16.368 131.296 17.101C132.141 17.8339 132.563 18.8524 132.563 20.1563V28.6975H130.62V26.8573H130.431C130.02 27.5209 129.475 28.0301 128.796 28.385C128.117 28.7399 127.351 28.9174 126.498 28.9174Z" fill="#316960"/>
<path d="M142.62 24.3343H144.776C144.911 25.2062 145.373 25.9006 146.162 26.4175C146.952 26.9345 147.955 27.193 149.171 27.193C150.324 27.193 151.276 26.9229 152.026 26.3828C152.784 25.835 153.163 25.1483 153.163 24.3228C153.163 23.6129 152.887 23.0265 152.334 22.5636C151.781 22.0929 150.917 21.711 149.74 21.4178L147.548 20.8623C146 20.4842 144.875 19.9364 144.172 19.2189C143.469 18.5013 143.118 17.5485 143.118 16.3603C143.118 14.9406 143.671 13.7948 144.776 12.923C145.89 12.0434 147.351 11.6036 149.159 11.6036C150.81 11.6036 152.192 12.0357 153.305 12.8998C154.419 13.764 155.019 14.8711 155.106 16.2214H152.962C152.812 15.3649 152.393 14.6975 151.706 14.2192C151.027 13.7331 150.154 13.49 149.088 13.49C147.951 13.49 147.035 13.7485 146.34 14.2655C145.653 14.7747 145.309 15.4498 145.309 16.2908C145.309 16.9466 145.562 17.479 146.068 17.8879C146.581 18.2969 147.426 18.6479 148.603 18.9411L150.391 19.4041C152.16 19.8361 153.428 20.4148 154.194 21.1401C154.968 21.8653 155.355 22.8414 155.355 24.0681C155.355 25.6035 154.778 26.8265 153.625 27.7369C152.472 28.6396 150.92 29.091 148.97 29.091C147.161 29.091 145.677 28.6589 144.516 27.7948C143.363 26.9306 142.731 25.7771 142.62 24.3343Z" fill="#316960"/>
<path d="M159.501 12.9924H161.538V16.2214H164.381V17.8879H161.538V24.9477C161.538 25.6807 161.688 26.2131 161.989 26.5448C162.289 26.8766 162.77 27.0425 163.434 27.0425C163.726 27.0425 164.042 27.0271 164.381 26.9962V28.6744C163.931 28.7515 163.532 28.7901 163.185 28.7901C161.866 28.7901 160.922 28.5316 160.354 28.0147C159.785 27.4977 159.501 26.6452 159.501 25.4569V17.8879H157.44V16.2214H159.501V12.9924Z" fill="#316960"/>
<path d="M177.791 16.2214V28.6975H175.848V26.7416H175.659C175.335 27.4437 174.837 27.9838 174.166 28.3619C173.495 28.7322 172.674 28.9174 171.702 28.9174C170.281 28.9174 169.199 28.52 168.456 27.7253C167.714 26.9306 167.343 25.7887 167.343 24.2996V16.2214H169.38V23.8135C169.38 24.9477 169.609 25.781 170.067 26.3134C170.525 26.838 171.26 27.1004 172.271 27.1004C173.384 27.1004 174.241 26.7956 174.841 26.1861C175.449 25.5688 175.754 24.7085 175.754 23.6052V16.2214H177.791Z" fill="#316960"/>
<path d="M186.356 28.9174C184.721 28.9174 183.418 28.331 182.446 27.1582C181.475 25.9855 180.989 24.4192 180.989 22.4594C180.989 20.5074 181.475 18.945 182.446 17.7722C183.426 16.5917 184.729 16.0015 186.356 16.0015C187.248 16.0015 188.046 16.1982 188.748 16.5917C189.459 16.9775 189.996 17.5099 190.36 18.1889H190.537V11.268H192.575V28.6975H190.632V26.7069H190.442C190.04 27.4013 189.479 27.9452 188.76 28.3387C188.042 28.7245 187.24 28.9174 186.356 28.9174ZM186.829 17.7954C185.669 17.7954 184.756 18.212 184.093 19.0453C183.43 19.8709 183.098 21.0089 183.098 22.4594C183.098 23.9177 183.426 25.0596 184.081 25.8852C184.745 26.7107 185.661 27.1235 186.829 27.1235C187.99 27.1235 188.906 26.7069 189.578 25.8736C190.249 25.0403 190.585 23.9023 190.585 22.4594C190.585 21.0321 190.245 19.8979 189.566 19.0569C188.895 18.2159 187.982 17.7954 186.829 17.7954Z" fill="#316960"/>
<path d="M196.579 28.6975V16.2214H198.616V28.6975H196.579ZM198.604 13.2817C198.328 13.5518 197.992 13.6868 197.597 13.6868C197.203 13.6868 196.867 13.5518 196.591 13.2817C196.314 13.004 196.176 12.6761 196.176 12.298C196.176 11.9199 196.314 11.5959 196.591 11.3258C196.867 11.0481 197.203 10.9092 197.597 10.9092C197.992 10.9092 198.328 11.0481 198.604 11.3258C198.881 11.5959 199.019 11.9199 199.019 12.298C199.019 12.6761 198.881 13.004 198.604 13.2817Z" fill="#316960"/>
<path d="M212.049 27.193C210.999 28.3426 209.566 28.9174 207.749 28.9174C205.933 28.9174 204.496 28.3426 203.437 27.193C202.387 26.0356 201.862 24.4578 201.862 22.4594C201.862 20.4534 202.387 18.8755 203.437 17.7259C204.488 16.5763 205.925 16.0015 207.749 16.0015C209.574 16.0015 211.011 16.5763 212.061 17.7259C213.112 18.8755 213.637 20.4534 213.637 22.4594C213.637 24.4578 213.108 26.0356 212.049 27.193ZM204.954 25.9083C205.609 26.7185 206.541 27.1235 207.749 27.1235C208.958 27.1235 209.89 26.7185 210.545 25.9083C211.2 25.0905 211.528 23.9408 211.528 22.4594C211.528 20.978 211.2 19.8323 210.545 19.0221C209.89 18.2043 208.958 17.7954 207.749 17.7954C206.541 17.7954 205.609 18.2043 204.954 19.0221C204.298 19.8323 203.971 20.978 203.971 22.4594C203.971 23.9408 204.298 25.0905 204.954 25.9083Z" fill="#316960"/>
</svg>
