<svg width="76" height="80" viewBox="0 0 76 80" fill="none" xmlns="http://www.w3.org/2000/svg">
<path d="M8.48123 80V64.6358L37.8942 40.2649C39.8339 38.6402 41.5091 37.1214 42.9198 35.7086C44.3305 34.2605 45.4061 32.777 46.1468 31.2583C46.9226 29.7395 47.3106 28.0441 47.3106 26.1722C47.3106 24.1589 46.8697 22.4459 45.9881 21.0331C45.1416 19.585 43.9602 18.4724 42.4437 17.6954C40.9625 16.9183 39.2344 16.5298 37.2594 16.5298C35.2844 16.5298 33.5387 16.936 32.0222 17.7483C30.541 18.5254 29.3771 19.6733 28.5307 21.1921C27.7196 22.7108 27.314 24.5828 27.314 26.8079H7C7 21.2627 8.23436 16.4945 10.7031 12.5033C13.2071 8.51214 16.7338 5.43929 21.2833 3.28477C25.8328 1.09492 31.1581 0 37.2594 0C43.5722 0 49.0387 1.00662 53.6587 3.01987C58.2787 5.03311 61.8407 7.87638 64.3447 11.5497C66.884 15.1876 68.1536 19.4614 68.1536 24.3709C68.1536 27.4084 67.5188 30.4283 66.2491 33.4305C65.0148 36.3974 62.7753 39.6998 59.5307 43.3377C56.2861 46.9757 51.6485 51.2848 45.6177 56.2649L38.2116 62.4106V62.9404H69V80H8.48123Z" fill="#A6CEC6"/>
</svg>
