<svg width="76" height="80" viewBox="0 0 76 80" fill="none" xmlns="http://www.w3.org/2000/svg">
<path d="M37.5817 80C31.4466 80 25.9913 78.9542 21.2157 76.8627C16.4749 74.7364 12.7451 71.8083 10.0261 68.0784C7.34205 64.3486 6 60.061 6 55.2157H27.2288C27.2288 56.7146 27.6819 58.0566 28.5882 59.2418C29.4946 60.3922 30.7495 61.2985 32.3529 61.9608C33.9564 62.6231 35.7691 62.9542 37.7908 62.9542C39.7429 62.9542 41.451 62.6057 42.915 61.9085C44.4139 61.2113 45.5643 60.2527 46.366 59.0327C47.2026 57.8126 47.6209 56.4009 47.6209 54.7974C47.6209 53.1939 47.1329 51.7996 46.1569 50.6144C45.2157 49.3943 43.8736 48.4532 42.1307 47.7908C40.4227 47.0937 38.4183 46.7451 36.1176 46.7451H28.1699V32.1046H36.1176C38.2091 32.1046 40.0566 31.756 41.6601 31.0588C43.2636 30.3617 44.5185 29.4205 45.4248 28.2353C46.3312 27.0152 46.7843 25.6209 46.7843 24.0523C46.7843 22.5185 46.4009 21.1765 45.634 20.0261C44.8671 18.8758 43.8039 17.9695 42.4444 17.3072C41.1198 16.6449 39.5686 16.3137 37.7908 16.3137C35.8388 16.3137 34.0959 16.6623 32.5621 17.3595C31.0632 18.0218 29.878 18.963 29.0065 20.183C28.1699 21.3682 27.7516 22.7625 27.7516 24.366H7.46405C7.46405 19.5904 8.75381 15.3725 11.3333 11.7124C13.9477 8.05229 17.5381 5.1939 22.1046 3.13725C26.671 1.04575 31.8998 0 37.7908 0C43.5425 0 48.6318 0.976035 53.0588 2.9281C57.4858 4.88017 60.9368 7.56427 63.4118 10.9804C65.9216 14.3965 67.1765 18.3007 67.1765 22.6928C67.1765 27.0153 65.6601 30.5882 62.6274 33.4118C59.6296 36.2004 55.8126 37.8562 51.1765 38.3791V38.902C57.451 39.5991 62.1569 41.5338 65.2941 44.7059C68.4314 47.8431 70 51.7996 70 56.5752C70 61.1416 68.6231 65.2026 65.8693 68.7582C63.1155 72.2789 59.2985 75.0327 54.4183 77.0196C49.573 79.0065 43.9608 80 37.5817 80Z" fill="#A6CEC6"/>
</svg>
